<svg width="33" height="33" viewBox="0 0 33 33" fill="none" xmlns="http://www.w3.org/2000/svg">
<mask id="mask0_6417_1079" style="mask-type:alpha" maskUnits="userSpaceOnUse" x="0" y="0" width="33" height="33">
<rect width="33" height="33" fill="#D9D9D9"/>
</mask>
<g mask="url(#mask0_6417_1079)">
<path d="M5.5 30.25C4.74375 30.25 4.09635 29.9807 3.55781 29.4422C3.01927 28.9036 2.75 28.2563 2.75 27.5V12.375C2.75 11.6187 3.01927 10.9714 3.55781 10.4328C4.09635 9.89427 4.74375 9.625 5.5 9.625H12.375V5.5C12.375 4.74375 12.6443 4.09635 13.1828 3.55781C13.7214 3.01927 14.3687 2.75 15.125 2.75H17.875C18.6313 2.75 19.2786 3.01927 19.8172 3.55781C20.3557 4.09635 20.625 4.74375 20.625 5.5V9.625H27.5C28.2563 9.625 28.9036 9.89427 29.4422 10.4328C29.9807 10.9714 30.25 11.6187 30.25 12.375V27.5C30.25 28.2563 29.9807 28.9036 29.4422 29.4422C28.9036 29.9807 28.2563 30.25 27.5 30.25H5.5ZM5.5 27.5H27.5V12.375H20.625C20.625 13.1313 20.3557 13.7786 19.8172 14.3172C19.2786 14.8557 18.6313 15.125 17.875 15.125H15.125C14.3687 15.125 13.7214 14.8557 13.1828 14.3172C12.6443 13.7786 12.375 13.1313 12.375 12.375H5.5V27.5ZM8.25 24.75H16.5V24.1313C16.5 23.7417 16.3911 23.3807 16.1734 23.0484C15.9557 22.7161 15.6521 22.4583 15.2625 22.275C14.8042 22.0688 14.3401 21.9141 13.8703 21.8109C13.4005 21.7078 12.9021 21.6562 12.375 21.6562C11.8479 21.6562 11.3495 21.7078 10.8797 21.8109C10.4099 21.9141 9.94583 22.0688 9.4875 22.275C9.09792 22.4583 8.79427 22.7161 8.57656 23.0484C8.35885 23.3807 8.25 23.7417 8.25 24.1313V24.75ZM19.25 22.6875H24.75V20.625H19.25V22.6875ZM12.375 20.625C12.9479 20.625 13.4349 20.4245 13.8359 20.0234C14.237 19.6224 14.4375 19.1354 14.4375 18.5625C14.4375 17.9896 14.237 17.5026 13.8359 17.1016C13.4349 16.7005 12.9479 16.5 12.375 16.5C11.8021 16.5 11.3151 16.7005 10.9141 17.1016C10.513 17.5026 10.3125 17.9896 10.3125 18.5625C10.3125 19.1354 10.513 19.6224 10.9141 20.0234C11.3151 20.4245 11.8021 20.625 12.375 20.625ZM19.25 18.5625H24.75V16.5H19.25V18.5625ZM15.125 12.375H17.875V5.5H15.125V12.375Z" fill="#908D8D"/>
</g>
</svg>
