<svg width="33" height="33" viewBox="0 0 33 33" fill="none" xmlns="http://www.w3.org/2000/svg">
<mask id="mask0_6417_1082" style="mask-type:alpha" maskUnits="userSpaceOnUse" x="0" y="0" width="33" height="33">
<rect width="33" height="33" fill="#D9D9D9"/>
</mask>
<g mask="url(#mask0_6417_1082)">
<path d="M5.5 27.5C4.74375 27.5 4.09635 27.2307 3.55781 26.6922C3.01927 26.1536 2.75 25.5063 2.75 24.75V8.25C2.75 7.49375 3.01927 6.84635 3.55781 6.30781C4.09635 5.76927 4.74375 5.5 5.5 5.5H27.5C28.2563 5.5 28.9036 5.76927 29.4422 6.30781C29.9807 6.84635 30.25 7.49375 30.25 8.25V24.75C30.25 25.5063 29.9807 26.1536 29.4422 26.6922C28.9036 27.2307 28.2563 27.5 27.5 27.5H5.5ZM16.5 17.875L5.5 11V24.75H27.5V11L16.5 17.875ZM16.5 15.125L27.5 8.25H5.5L16.5 15.125ZM5.5 11V8.25V24.75V11Z" fill="#908D8D"/>
</g>
</svg>
