<svg width="93" height="93" viewBox="0 0 93 93" fill="none" xmlns="http://www.w3.org/2000/svg">
<mask id="mask0_6417_778" style="mask-type:alpha" maskUnits="userSpaceOnUse" x="0" y="0" width="93" height="93">
<rect width="93" height="93" rx="5" fill="#D9D9D9"/>
</mask>
<g mask="url(#mask0_6417_778)">
<path d="M13 83.9712C10.2386 83.9712 8 81.7326 8 78.9712V21.4264C8 18.665 10.2386 16.4264 13 16.4264H41.75C44.5114 16.4264 46.75 18.665 46.75 21.4264V26.4363C46.75 29.1978 48.9886 31.4363 51.75 31.4363H80.5C83.2614 31.4363 85.5 33.6749 85.5 36.4363V78.9712C85.5 81.7326 83.2614 83.9712 80.5 83.9712H13ZM15.75 72.7137C15.75 74.7862 17.43 76.4662 19.5025 76.4662H19.7475C21.82 76.4662 23.5 74.7862 23.5 72.7137C23.5 70.6413 21.82 68.9612 19.7475 68.9612H19.5025C17.43 68.9612 15.75 70.6413 15.75 72.7137ZM15.75 57.7038C15.75 59.7762 17.43 61.4563 19.5025 61.4563H19.7475C21.82 61.4563 23.5 59.7762 23.5 57.7038C23.5 55.6313 21.82 53.9513 19.7475 53.9513H19.5025C17.43 53.9513 15.75 55.6313 15.75 57.7038ZM15.75 42.6938C15.75 44.7663 17.43 46.4463 19.5025 46.4463H19.7475C21.82 46.4463 23.5 44.7663 23.5 42.6938C23.5 40.6214 21.82 38.9413 19.7475 38.9413H19.5025C17.43 38.9413 15.75 40.6214 15.75 42.6938ZM15.75 27.6839C15.75 29.7563 17.43 31.4363 19.5025 31.4363H19.7475C21.82 31.4363 23.5 29.7563 23.5 27.6839C23.5 25.6114 21.82 23.9314 19.7475 23.9314H19.5025C17.43 23.9314 15.75 25.6114 15.75 27.6839ZM31.25 72.7137C31.25 74.7862 32.93 76.4662 35.0025 76.4662H35.2475C37.32 76.4662 39 74.7862 39 72.7137C39 70.6413 37.32 68.9612 35.2475 68.9612H35.0025C32.93 68.9612 31.25 70.6413 31.25 72.7137ZM31.25 57.7038C31.25 59.7762 32.93 61.4563 35.0025 61.4563H35.2475C37.32 61.4563 39 59.7762 39 57.7038C39 55.6313 37.32 53.9513 35.2475 53.9513H35.0025C32.93 53.9513 31.25 55.6313 31.25 57.7038ZM31.25 42.6938C31.25 44.7663 32.93 46.4463 35.0025 46.4463H35.2475C37.32 46.4463 39 44.7663 39 42.6938C39 40.6214 37.32 38.9413 35.2475 38.9413H35.0025C32.93 38.9413 31.25 40.6214 31.25 42.6938ZM31.25 27.6839C31.25 29.7563 32.93 31.4363 35.0025 31.4363H35.2475C37.32 31.4363 39 29.7563 39 27.6839C39 25.6114 37.32 23.9314 35.2475 23.9314H35.0025C32.93 23.9314 31.25 25.6114 31.25 27.6839ZM46.75 72.7137C46.75 74.7862 48.43 76.4662 50.5025 76.4662H72.75C75.5114 76.4662 77.75 74.2276 77.75 71.4662V43.9413C77.75 41.1799 75.5114 38.9413 72.75 38.9413H50.5025C48.4301 38.9413 46.75 40.6214 46.75 42.6938C46.75 44.7663 48.43 46.4463 50.5025 46.4463H50.7475C52.82 46.4463 54.5 48.1264 54.5 50.1988C54.5 52.2712 52.82 53.9513 50.7475 53.9513H50.5025C48.43 53.9513 46.75 55.6313 46.75 57.7038C46.75 59.7762 48.43 61.4563 50.5025 61.4563H50.7475C52.82 61.4563 54.5 63.1363 54.5 65.2088C54.5 67.2812 52.82 68.9612 50.7475 68.9612H50.5025C48.43 68.9612 46.75 70.6413 46.75 72.7137ZM66.0025 53.9513C63.9301 53.9513 62.25 52.2712 62.25 50.1988C62.25 48.1264 63.9301 46.4463 66.0025 46.4463H66.2475C68.32 46.4463 70 48.1264 70 50.1988C70 52.2712 68.32 53.9513 66.2475 53.9513H66.0025ZM66.0025 68.9612C63.9301 68.9612 62.25 67.2812 62.25 65.2088C62.25 63.1363 63.9301 61.4563 66.0025 61.4563H66.2475C68.32 61.4563 70 63.1363 70 65.2088C70 67.2812 68.32 68.9612 66.2475 68.9612H66.0025Z" fill="white"/>
</g>
</svg>
