<svg width="26" height="26" viewBox="0 0 26 26" fill="none" xmlns="http://www.w3.org/2000/svg">
<path d="M3.5 25.5402C2.52778 25.5402 1.70139 25.102 1.02083 24.2257C0.340278 23.3493 0 22.2851 0 21.0331C0 20.3821 0.0972222 19.7624 0.291667 19.1739C0.486111 18.5855 0.777778 18.0785 1.16667 17.6528V10.5166H3.5V1.50237H12.8333L18.3167 18.1411C18.4333 18.4916 18.5208 18.8422 18.5792 19.1927C18.6375 19.5433 18.6667 19.9064 18.6667 20.2819C18.6667 21.7342 18.2681 22.9737 17.4708 24.0003C16.6736 25.0269 15.7111 25.5402 14.5833 25.5402C13.7861 25.5402 13.0521 25.271 12.3812 24.7327C11.7104 24.1944 11.2097 23.462 10.8792 22.5355H6.79583C6.54306 23.4369 6.11528 24.1631 5.5125 24.7139C4.90972 25.2648 4.23889 25.5402 3.5 25.5402ZM19.8333 24.0379V0H22.1667V21.0331H25.6667V24.0379H19.8333ZM3.5 22.5355C3.83056 22.5355 4.10764 22.3915 4.33125 22.1036C4.55486 21.8156 4.66667 21.4588 4.66667 21.0331C4.66667 20.6075 4.55486 20.2506 4.33125 19.9627C4.10764 19.6747 3.83056 19.5308 3.5 19.5308C3.16944 19.5308 2.89236 19.6747 2.66875 19.9627C2.44514 20.2506 2.33333 20.6075 2.33333 21.0331C2.33333 21.4588 2.44514 21.8156 2.66875 22.1036C2.89236 22.3915 3.16944 22.5355 3.5 22.5355ZM14.5833 22.5355C15.0694 22.5355 15.4826 22.3164 15.8229 21.8782C16.1632 21.44 16.3333 20.9079 16.3333 20.2819C16.3333 19.656 16.1632 19.1239 15.8229 18.6857C15.4826 18.2475 15.0694 18.0284 14.5833 18.0284C14.0972 18.0284 13.684 18.2475 13.3437 18.6857C13.0035 19.1239 12.8333 19.656 12.8333 20.2819C12.8333 20.9079 13.0035 21.44 13.3437 21.8782C13.684 22.3164 14.0972 22.5355 14.5833 22.5355ZM6.79583 19.5308H10.5292C10.5681 19.2553 10.6118 18.9987 10.6604 18.7608C10.709 18.5229 10.7819 18.2788 10.8792 18.0284H8.25417L4.84167 13.5213H3.5V16.526C4.23889 16.526 4.90972 16.8015 5.5125 17.3523C6.11528 17.9032 6.54306 18.6293 6.79583 19.5308ZM9.24583 15.0237H14.7583L11.2875 4.5071H5.83333V10.5166L9.24583 15.0237ZM8.25417 18.0284L7.71458 17.3148C7.35486 16.839 6.96597 16.3195 6.54792 15.7561C6.12986 15.1927 5.74097 14.6794 5.38125 14.2161L4.84167 13.5213L8.25417 18.0284Z" fill="#006F33"/>
</svg>
