<svg width="24" height="31" viewBox="0 0 24 31" fill="none" xmlns="http://www.w3.org/2000/svg">
<path d="M19.8333 9.0142C20.1639 9.0142 20.441 8.87022 20.6646 8.58227C20.8882 8.29431 21 7.9375 21 7.51183C21 7.08616 20.8882 6.72935 20.6646 6.44139C20.441 6.15344 20.1639 6.00946 19.8333 6.00946C19.5028 6.00946 19.2257 6.15344 19.0021 6.44139C18.7785 6.72935 18.6667 7.08616 18.6667 7.51183C18.6667 7.9375 18.7785 8.29431 19.0021 8.58227C19.2257 8.87022 19.5028 9.0142 19.8333 9.0142ZM19.8333 12.0189C18.8417 12.0189 18.0104 11.587 17.3396 10.7231C16.6688 9.85928 16.3333 8.78884 16.3333 7.51183C16.3333 6.25986 16.6688 5.19568 17.3396 4.3193C18.0104 3.44292 18.8417 3.00473 19.8333 3.00473C20.8056 3.00473 21.6319 3.44292 22.3125 4.3193C22.9931 5.19568 23.3333 6.25986 23.3333 7.51183C23.3333 8.78884 22.9931 9.85928 22.3125 10.7231C21.6319 11.587 20.8056 12.0189 19.8333 12.0189ZM11.6667 7.51183C12.1528 7.51183 12.566 7.29899 12.9063 6.87332C13.2465 6.44765 13.4167 5.90931 13.4167 5.25828C13.4167 4.6323 13.2465 4.10021 12.9063 3.66202C12.566 3.22383 12.1528 3.00473 11.6667 3.00473C11.1611 3.00473 10.7431 3.22383 10.4125 3.66202C10.0819 4.10021 9.91667 4.6323 9.91667 5.25828C9.91667 5.90931 10.0819 6.44765 10.4125 6.87332C10.7431 7.29899 11.1611 7.51183 11.6667 7.51183ZM11.6667 10.5166C10.5194 10.5166 9.55208 10.0095 8.76458 8.99542C7.97708 7.98132 7.58333 6.73561 7.58333 5.25828C7.58333 3.80599 7.97708 2.56654 8.76458 1.53993C9.55208 0.513308 10.5194 0 11.6667 0C12.7944 0 13.7569 0.513308 14.5542 1.53993C15.3514 2.56654 15.75 3.80599 15.75 5.25828C15.75 6.73561 15.3514 7.98132 14.5542 8.99542C13.7569 10.0095 12.7944 10.5166 11.6667 10.5166ZM7 17.0894C7 17.8406 7.31111 18.717 7.93333 19.7186C8.55556 20.7201 9.8 22.3101 11.6667 24.4886C13.4944 22.3602 14.7292 20.7952 15.3708 19.7937C16.0125 18.7921 16.3333 17.8907 16.3333 17.0894C16.3333 16.5135 16.1875 16.0252 15.8958 15.6246C15.6042 15.224 15.2444 15.0237 14.8167 15.0237C14.5444 15.0237 14.2868 15.0988 14.0438 15.249C13.8007 15.3993 13.6014 15.6121 13.4458 15.8875L12.0458 18.0284H11.2583L9.85833 15.8875C9.70278 15.6121 9.50347 15.3993 9.26042 15.249C9.01736 15.0988 8.76945 15.0237 8.51667 15.0237C8.06945 15.0237 7.70486 15.224 7.42292 15.6246C7.14097 16.0252 7 16.5135 7 17.0894ZM4.66667 17.0894C4.66667 15.7623 5.01667 14.5855 5.71667 13.5589C6.41667 12.5322 7.35 12.0189 8.51667 12.0189C9.11945 12.0189 9.69792 12.1942 10.2521 12.5448C10.8063 12.8953 11.2778 13.3711 11.6667 13.972C12.0556 13.3711 12.5222 12.8953 13.0667 12.5448C13.6111 12.1942 14.1944 12.0189 14.8167 12.0189C15.9833 12.0189 16.9167 12.5385 17.6167 13.5776C18.3167 14.6168 18.6667 15.7874 18.6667 17.0894C18.6667 18.4165 18.2924 19.7248 17.5438 21.0143C16.7951 22.3039 15.2639 24.3133 12.95 27.0426L11.6667 28.545L10.3833 27.0426C8.03056 24.2882 6.48958 22.2726 5.76042 20.9956C5.03125 19.7186 4.66667 18.4165 4.66667 17.0894ZM3.5 9.0142C3.83056 9.0142 4.10764 8.87022 4.33125 8.58227C4.55486 8.29431 4.66667 7.9375 4.66667 7.51183C4.66667 7.08616 4.55486 6.72935 4.33125 6.44139C4.10764 6.15344 3.83056 6.00946 3.5 6.00946C3.16944 6.00946 2.89236 6.15344 2.66875 6.44139C2.44514 6.72935 2.33333 7.08616 2.33333 7.51183C2.33333 7.9375 2.44514 8.29431 2.66875 8.58227C2.89236 8.87022 3.16944 9.0142 3.5 9.0142ZM11.7542 30.0473V27.0426H21V16.526H17.5583V13.5213H21C21.6417 13.5213 22.191 13.8155 22.6479 14.4039C23.1049 14.9924 23.3333 15.6997 23.3333 16.526V30.0473H11.7542ZM2.33333 27.0426H11.7542V30.0473H0V16.526C0 15.6997 0.223611 14.9924 0.670833 14.4039C1.11806 13.8155 1.67222 13.5213 2.33333 13.5213H5.775V16.526H2.33333V27.0426ZM3.5 12.0189C2.50833 12.0189 1.67708 11.587 1.00625 10.7231C0.335417 9.85928 0 8.78884 0 7.51183C0 6.25986 0.335417 5.19568 1.00625 4.3193C1.67708 3.44292 2.50833 3.00473 3.5 3.00473C4.47222 3.00473 5.29861 3.44292 5.97917 4.3193C6.65972 5.19568 7 6.25986 7 7.51183C7 8.78884 6.65972 9.85928 5.97917 10.7231C5.29861 11.587 4.47222 12.0189 3.5 12.0189Z" fill="#006F33"/>
</svg>
