<svg width="16" height="28" viewBox="0 0 16 28" fill="none" xmlns="http://www.w3.org/2000/svg">
<path d="M0 27.0426V0H8.16667C10.1111 0 11.7639 0.87638 13.125 2.62914C14.4861 4.3819 15.1667 6.51025 15.1667 9.0142C15.1667 11.5181 14.4861 13.6465 13.125 15.3993C11.7639 17.152 10.1111 18.0284 8.16667 18.0284H4.66667V27.0426H0ZM4.66667 12.0189H8.4C9.04167 12.0189 9.59097 11.7247 10.0479 11.1363C10.5049 10.5479 10.7333 9.8405 10.7333 9.0142C10.7333 8.18789 10.5049 7.48053 10.0479 6.8921C9.59097 6.30368 9.04167 6.00946 8.4 6.00946H4.66667V12.0189Z" fill="#006F33"/>
</svg>
