<svg width="24" height="28" viewBox="0 0 24 28" fill="none" xmlns="http://www.w3.org/2000/svg">
<path d="M0 27.0426V24.0379C0.738889 24.0379 1.29306 23.7875 1.6625 23.2867C2.03194 22.7859 2.76111 22.5355 3.85 22.5355C4.93889 22.5355 5.6875 22.7859 6.09583 23.2867C6.50417 23.7875 7.05833 24.0379 7.75833 24.0379C8.45833 24.0379 9.0125 23.7875 9.42083 23.2867C9.82917 22.7859 10.5778 22.5355 11.6667 22.5355C12.7556 22.5355 13.5042 22.7859 13.9125 23.2867C14.3208 23.7875 14.875 24.0379 15.575 24.0379C16.275 24.0379 16.8292 23.7875 17.2375 23.2867C17.6458 22.7859 18.3944 22.5355 19.4833 22.5355C20.5722 22.5355 21.3014 22.7859 21.6708 23.2867C22.0403 23.7875 22.5944 24.0379 23.3333 24.0379V27.0426C22.1861 27.0426 21.4326 26.7922 21.0729 26.2914C20.7132 25.7906 20.1833 25.5402 19.4833 25.5402C18.7833 25.5402 18.2292 25.7906 17.8208 26.2914C17.4125 26.7922 16.6639 27.0426 15.575 27.0426C14.4861 27.0426 13.7375 26.7922 13.3292 26.2914C12.9208 25.7906 12.3667 25.5402 11.6667 25.5402C10.9667 25.5402 10.4125 25.7906 10.0042 26.2914C9.59583 26.7922 8.84722 27.0426 7.75833 27.0426C6.66945 27.0426 5.92083 26.7922 5.5125 26.2914C5.10417 25.7906 4.55 25.5402 3.85 25.5402C3.15 25.5402 2.62014 25.7906 2.26042 26.2914C1.90069 26.7922 1.14722 27.0426 0 27.0426ZM0 20.2819V17.2772C0.738889 17.2772 1.29306 17.0268 1.6625 16.526C2.03194 16.0252 2.76111 15.7748 3.85 15.7748C4.93889 15.7748 5.69236 16.0252 6.11042 16.526C6.52847 17.0268 7.07778 17.2772 7.75833 17.2772C8.45833 17.2772 9.0125 17.0268 9.42083 16.526C9.82917 16.0252 10.5778 15.7748 11.6667 15.7748C12.7556 15.7748 13.5042 16.0252 13.9125 16.526C14.3208 17.0268 14.875 17.2772 15.575 17.2772C16.275 17.2772 16.8292 17.0268 17.2375 16.526C17.6458 16.0252 18.3944 15.7748 19.4833 15.7748C20.5722 15.7748 21.3014 16.0252 21.6708 16.526C22.0403 17.0268 22.5944 17.2772 23.3333 17.2772V20.2819C22.1861 20.2819 21.4326 20.0315 21.0729 19.5308C20.7132 19.03 20.1833 18.7796 19.4833 18.7796C18.7833 18.7796 18.2438 19.03 17.8646 19.5308C17.4854 20.0315 16.7222 20.2819 15.575 20.2819C14.4667 20.2819 13.7132 20.0315 13.3146 19.5308C12.916 19.03 12.3667 18.7796 11.6667 18.7796C10.9278 18.7796 10.3785 19.03 10.0188 19.5308C9.65903 20.0315 8.90556 20.2819 7.75833 20.2819C6.61111 20.2819 5.84792 20.0315 5.46875 19.5308C5.08958 19.03 4.55 18.7796 3.85 18.7796C3.15 18.7796 2.62014 19.03 2.26042 19.5308C1.90069 20.0315 1.14722 20.2819 0 20.2819ZM5.71667 12.6199L9.59583 7.62451L8.42917 6.12214C7.7875 5.29584 7.10694 4.69489 6.3875 4.3193C5.66806 3.94371 4.78333 3.75591 3.73333 3.75591V0C5.19167 0 6.39722 0.206575 7.35 0.619726C8.30278 1.03288 9.23611 1.82788 10.15 3.00473L17.6167 12.6199C17.2861 12.8953 16.9653 13.1144 16.6542 13.2772C16.3431 13.4399 15.9833 13.5213 15.575 13.5213C14.875 13.5213 14.3208 13.2709 13.9125 12.7701C13.5042 12.2693 12.7556 12.0189 11.6667 12.0189C10.5778 12.0189 9.82917 12.2693 9.42083 12.7701C9.0125 13.2709 8.45833 13.5213 7.75833 13.5213C7.35 13.5213 6.99028 13.4399 6.67917 13.2772C6.36806 13.1144 6.04722 12.8953 5.71667 12.6199ZM17.15 0C17.9667 0 18.6569 0.369332 19.2208 1.10799C19.7847 1.84666 20.0667 2.7293 20.0667 3.75591C20.0667 4.80757 19.7847 5.69647 19.2208 6.42261C18.6569 7.14876 17.9667 7.51183 17.15 7.51183C16.3333 7.51183 15.6431 7.14876 15.0792 6.42261C14.5153 5.69647 14.2333 4.80757 14.2333 3.75591C14.2333 2.7293 14.5153 1.84666 15.0792 1.10799C15.6431 0.369332 16.3333 0 17.15 0Z" fill="#006F33"/>
</svg>
