<svg width="18" height="31" viewBox="0 0 18 31" fill="none" xmlns="http://www.w3.org/2000/svg">
<path d="M3.5 30.0473V16.3007C2.50833 15.9501 1.67708 15.249 1.00625 14.1974C0.335417 13.1457 0 11.9188 0 10.5166V0H2.33333V10.5166H3.5V0H5.83333V10.5166H7V0H9.33333V10.5166C9.33333 11.9188 8.99792 13.1457 8.32708 14.1974C7.65625 15.249 6.825 15.9501 5.83333 16.3007V30.0473H3.5ZM15.1667 30.0473V18.0284H11.6667V7.51183C11.6667 5.43356 12.2354 3.66202 13.3729 2.19721C14.5104 0.732403 15.8861 0 17.5 0V30.0473H15.1667Z" fill="#006F33"/>
</svg>
