<svg width="25" height="31" viewBox="0 0 25 31" fill="none" xmlns="http://www.w3.org/2000/svg">
<path d="M21.4667 30.9487L13.7667 21.0331H0.7V16.526H10.2667L0 3.30521L1.63333 1.20189L23.1 28.8454L21.4667 30.9487ZM20.3583 21.0331L19.3667 19.7561V16.526H21.1167V21.0331H20.3583ZM22.2833 21.0331V16.526H24.0333V21.0331H22.2833ZM18.2 18.2537L16.8583 16.526H18.2V18.2537ZM19.3667 15.0237V13.0706C19.3667 12.094 19.1431 11.3491 18.6958 10.8358C18.2486 10.3225 17.7139 10.0659 17.0917 10.0659H15.2833C14.1944 10.0659 13.2708 9.57758 12.5125 8.60104C11.7542 7.62451 11.375 6.43513 11.375 5.03293C11.375 3.63072 11.7542 2.44134 12.5125 1.46481C13.2708 0.488269 14.1944 0 15.2833 0V2.25355C14.7 2.25355 14.1944 2.51646 13.7667 3.04229C13.3389 3.56812 13.125 4.23166 13.125 5.03293C13.125 5.83419 13.3389 6.49773 13.7667 7.02356C14.1944 7.54939 14.7 7.8123 15.2833 7.8123H17.0917C18.1806 7.8123 19.1236 8.26301 19.9208 9.16443C20.7181 10.0659 21.1167 11.1926 21.1167 12.5448V15.0237H19.3667ZM22.2833 15.0237V11.6433C22.2833 9.99073 21.8361 8.56349 20.9417 7.36159C20.0472 6.1597 18.9389 5.55875 17.6167 5.55875V3.30521C18.2 3.30521 18.7056 3.02977 19.1333 2.4789C19.5611 1.92804 19.775 1.27701 19.775 0.525828H21.525C21.525 1.25197 21.4181 1.90926 21.2042 2.49768C20.9903 3.08611 20.7083 3.63072 20.3583 4.13151C21.4472 4.78253 22.3319 5.78411 23.0125 7.13624C23.6931 8.48837 24.0333 9.99073 24.0333 11.6433V15.0237H22.2833Z" fill="#006F33"/>
</svg>
