<svg width="25" height="28" viewBox="0 0 25 28" fill="none" xmlns="http://www.w3.org/2000/svg">
<path d="M12.1625 27.0426C10.8792 27.0426 9.78056 26.4542 8.86667 25.2773C7.95278 24.1005 7.49583 22.6857 7.49583 21.0331C7.49583 19.3805 7.95278 17.9658 8.86667 16.7889C9.78056 15.6121 10.8792 15.0237 12.1625 15.0237C13.4458 15.0237 14.5444 15.6121 15.4583 16.7889C16.3722 17.9658 16.8292 19.3805 16.8292 21.0331C16.8292 22.6857 16.3722 24.1005 15.4583 25.2773C14.5444 26.4542 13.4458 27.0426 12.1625 27.0426ZM12.1625 24.0379C12.8042 24.0379 13.3535 23.7436 13.8104 23.1552C14.2674 22.5668 14.4958 21.8594 14.4958 21.0331C14.4958 20.2068 14.2674 19.4995 13.8104 18.911C13.3535 18.3226 12.8042 18.0284 12.1625 18.0284C11.5208 18.0284 10.9715 18.3226 10.5146 18.911C10.0576 19.4995 9.82917 20.2068 9.82917 21.0331C9.82917 21.8594 10.0576 22.5668 10.5146 23.1552C10.9715 23.7436 11.5208 24.0379 12.1625 24.0379ZM1.72083 8.41325L0 6.3475C1.575 4.36938 3.40278 2.81694 5.48333 1.69016C7.56389 0.563387 9.79028 0 12.1625 0C14.5347 0 16.7611 0.563387 18.8417 1.69016C20.9222 2.81694 22.75 4.36938 24.325 6.3475L22.6042 8.41325C21.2236 6.73561 19.6486 5.41478 17.8792 4.45076C16.1097 3.48674 14.2042 3.00473 12.1625 3.00473C10.1208 3.00473 8.21528 3.48674 6.44583 4.45076C4.67639 5.41478 3.10139 6.73561 1.72083 8.41325ZM18.3458 13.5589C17.5292 12.6074 16.5958 11.8624 15.5458 11.3241C14.4958 10.7857 13.3681 10.5166 12.1625 10.5166C10.9569 10.5166 9.83403 10.7857 8.79375 11.3241C7.75347 11.8624 6.81528 12.6074 5.97917 13.5589L4.25833 11.4931C5.30833 10.2411 6.50903 9.26459 7.86042 8.56349C9.21181 7.86238 10.6458 7.51183 12.1625 7.51183C13.6792 7.51183 15.1083 7.86238 16.45 8.56349C17.7917 9.26459 18.9875 10.2411 20.0375 11.4931L18.3458 13.5589Z" fill="#006F33"/>
</svg>
